<mxfile host="Electron" modified="2023-12-12T07:15:46.674Z" agent="Mozilla/5.0 (Macintosh; Intel Mac OS X 10_15_7) AppleWebKit/537.36 (KHTML, like Gecko) draw.io/22.1.2 Chrome/114.0.5735.289 Electron/25.9.4 Safari/537.36" etag="DuTLSRxuWsqf4nlhBu3T" version="22.1.2" type="device">
  <diagram name="Page-1" id="LbfhoFpA35uC075Nycsw">
    <mxGraphModel dx="742" dy="544" grid="1" gridSize="10" guides="1" tooltips="1" connect="1" arrows="1" fold="1" page="1" pageScale="1" pageWidth="850" pageHeight="1100" math="0" shadow="0">
      <root>
        <mxCell id="0" />
        <mxCell id="1" parent="0" />
        <mxCell id="mQq_rkckX5Se1eWS7O4C-20" value="Client&lt;br&gt;&lt;br&gt;&lt;br&gt;&lt;br&gt;" style="rounded=1;whiteSpace=wrap;html=1;" vertex="1" parent="1">
          <mxGeometry x="119.99" y="270" width="80" height="67.5" as="geometry" />
        </mxCell>
        <mxCell id="mQq_rkckX5Se1eWS7O4C-1" value="" style="sketch=0;outlineConnect=0;fontColor=#232F3E;gradientColor=none;strokeColor=#232F3E;fillColor=#ffffff;dashed=0;verticalLabelPosition=bottom;verticalAlign=top;align=center;html=1;fontSize=12;fontStyle=0;aspect=fixed;shape=mxgraph.aws4.resourceIcon;resIcon=mxgraph.aws4.client;" vertex="1" parent="1">
          <mxGeometry x="140.19" y="289.39" width="39.61" height="39.61" as="geometry" />
        </mxCell>
        <mxCell id="mQq_rkckX5Se1eWS7O4C-36" value="" style="group" vertex="1" connectable="0" parent="1">
          <mxGeometry x="434" y="240" width="190" height="130" as="geometry" />
        </mxCell>
        <mxCell id="mQq_rkckX5Se1eWS7O4C-8" value="&lt;div style=&quot;text-align: justify;&quot;&gt;&lt;span style=&quot;background-color: initial;&quot;&gt;&amp;nbsp; &amp;nbsp; &amp;nbsp; AWS EC2 instance&lt;/span&gt;&lt;/div&gt;&lt;div style=&quot;text-align: justify;&quot;&gt;&lt;br&gt;&lt;/div&gt;&lt;div style=&quot;text-align: justify;&quot;&gt;&lt;br&gt;&lt;/div&gt;&lt;div style=&quot;text-align: justify;&quot;&gt;&lt;br&gt;&lt;/div&gt;&lt;div style=&quot;text-align: justify;&quot;&gt;&lt;br&gt;&lt;/div&gt;&lt;div style=&quot;text-align: justify;&quot;&gt;&lt;br&gt;&lt;/div&gt;&lt;div style=&quot;text-align: justify;&quot;&gt;&lt;br&gt;&lt;/div&gt;&lt;div style=&quot;text-align: justify;&quot;&gt;&lt;br&gt;&lt;/div&gt;" style="rounded=1;whiteSpace=wrap;html=1;" vertex="1" parent="mQq_rkckX5Se1eWS7O4C-36">
          <mxGeometry x="-40" width="230" height="130" as="geometry" />
        </mxCell>
        <mxCell id="mQq_rkckX5Se1eWS7O4C-12" value="" style="shape=image;verticalLabelPosition=bottom;labelBackgroundColor=default;verticalAlign=top;aspect=fixed;imageAspect=0;image=https://miro.medium.com/v2/resize:fit:600/1*W02WEmR0_JeJXfLWN2zHwQ.png;" vertex="1" parent="mQq_rkckX5Se1eWS7O4C-36">
          <mxGeometry x="-18.2" width="40" height="30" as="geometry" />
        </mxCell>
        <mxCell id="mQq_rkckX5Se1eWS7O4C-55" style="edgeStyle=none;rounded=0;orthogonalLoop=1;jettySize=auto;html=1;entryX=0.5;entryY=0;entryDx=0;entryDy=0;startArrow=classic;startFill=1;endSize=3;startSize=3;" edge="1" parent="mQq_rkckX5Se1eWS7O4C-36" source="mQq_rkckX5Se1eWS7O4C-19" target="mQq_rkckX5Se1eWS7O4C-35">
          <mxGeometry relative="1" as="geometry" />
        </mxCell>
        <mxCell id="mQq_rkckX5Se1eWS7O4C-19" value="" style="shape=image;verticalLabelPosition=bottom;labelBackgroundColor=default;verticalAlign=top;aspect=fixed;imageAspect=0;image=https://cdn-images-1.medium.com/max/600/0*sNYQK1-uN4WEf8SS.jpg;shadow=0;strokeColor=#808080;" vertex="1" parent="mQq_rkckX5Se1eWS7O4C-36">
          <mxGeometry x="34.1" y="30" width="69.26" height="45" as="geometry" />
        </mxCell>
        <mxCell id="mQq_rkckX5Se1eWS7O4C-27" value="&lt;p&gt;&lt;font style=&quot;font-size: 10px;&quot; color=&quot;#ffffff&quot;&gt;RESTful APIs&lt;/font&gt;&lt;/p&gt;" style="rounded=1;whiteSpace=wrap;html=1;arcSize=50;fillColor=#000000;align=center;" vertex="1" parent="mQq_rkckX5Se1eWS7O4C-36">
          <mxGeometry x="107" y="36" width="75" height="19" as="geometry" />
        </mxCell>
        <mxCell id="mQq_rkckX5Se1eWS7O4C-29" value="&lt;font style=&quot;font-size: 10px;&quot; color=&quot;#ffffff&quot;&gt;Authentication&lt;/font&gt;" style="rounded=1;whiteSpace=wrap;html=1;arcSize=50;fillColor=#000000;align=center;" vertex="1" parent="mQq_rkckX5Se1eWS7O4C-36">
          <mxGeometry x="107" y="62" width="75" height="20" as="geometry" />
        </mxCell>
        <mxCell id="mQq_rkckX5Se1eWS7O4C-28" value="&lt;font style=&quot;font-size: 10px;&quot; color=&quot;#ffffff&quot;&gt;MVC&lt;/font&gt;" style="rounded=1;whiteSpace=wrap;html=1;arcSize=50;fillColor=#000000;align=center;" vertex="1" parent="mQq_rkckX5Se1eWS7O4C-36">
          <mxGeometry x="122" y="87" width="45" height="20" as="geometry" />
        </mxCell>
        <mxCell id="mQq_rkckX5Se1eWS7O4C-35" value="" style="shape=image;verticalLabelPosition=bottom;labelBackgroundColor=default;verticalAlign=top;aspect=fixed;imageAspect=0;image=https://upload.wikimedia.org/wikipedia/zh/thumb/6/62/MySQL.svg/1200px-MySQL.svg.png;" vertex="1" parent="mQq_rkckX5Se1eWS7O4C-36">
          <mxGeometry x="46.400000000000006" y="92" width="44.66" height="23" as="geometry" />
        </mxCell>
        <mxCell id="mQq_rkckX5Se1eWS7O4C-37" value="" style="group" vertex="1" connectable="0" parent="1">
          <mxGeometry x="666" y="270" width="120" height="70" as="geometry" />
        </mxCell>
        <mxCell id="mQq_rkckX5Se1eWS7O4C-24" value="Third party payment&lt;br&gt;&lt;br&gt;&lt;br&gt;&lt;br&gt;" style="rounded=1;whiteSpace=wrap;html=1;" vertex="1" parent="mQq_rkckX5Se1eWS7O4C-37">
          <mxGeometry width="120" height="70" as="geometry" />
        </mxCell>
        <mxCell id="mQq_rkckX5Se1eWS7O4C-30" value="" style="shape=image;verticalLabelPosition=bottom;labelBackgroundColor=default;verticalAlign=top;aspect=fixed;imageAspect=0;image=https://www.boxful.com.tw/ecblog/wp-content/uploads/2022/09/tappay_logo.png;" vertex="1" parent="mQq_rkckX5Se1eWS7O4C-37">
          <mxGeometry x="19" y="25.159999999999968" width="82" height="34.84" as="geometry" />
        </mxCell>
        <mxCell id="mQq_rkckX5Se1eWS7O4C-50" value="" style="group" vertex="1" connectable="0" parent="1">
          <mxGeometry x="241" y="272.5" width="110" height="65" as="geometry" />
        </mxCell>
        <mxCell id="mQq_rkckX5Se1eWS7O4C-45" value="" style="rounded=1;whiteSpace=wrap;html=1;" vertex="1" parent="mQq_rkckX5Se1eWS7O4C-50">
          <mxGeometry width="110" height="65" as="geometry" />
        </mxCell>
        <mxCell id="mQq_rkckX5Se1eWS7O4C-46" value="&lt;font style=&quot;font-size: 10px;&quot;&gt;Google&lt;br&gt;Cloud&lt;br&gt;DNS&lt;/font&gt;" style="editableCssRules=.*;html=1;fontColor=#999999;shape=image;verticalLabelPosition=middle;labelBackgroundColor=#ffffff;verticalAlign=middle;labelPosition=right;align=left;spacingLeft=20;part=1;points=[];imageAspect=0;image=data:image/svg+xml,PHN2ZyB4bWxucz0iaHR0cDovL3d3dy53My5vcmcvMjAwMC9zdmciIHhtbG5zOnY9Imh0dHBzOi8vdmVjdGEuaW8vbmFubyIgd2lkdGg9IjIwIiBoZWlnaHQ9IjIwIiB2aWV3Qm94PSIwIDAgMjAgMjAiPiYjeGE7CTxzdHlsZSB0eXBlPSJ0ZXh0L2NzcyI+JiN4YTsJLnN0MHtmaWxsOiM0Mjg1ZjQ7fSYjeGE7CS5zdDF7ZmlsbDojNjY5ZGY2O30mI3hhOwkuc3Qye2ZpbGw6I2FlY2JmYTt9JiN4YTsJLnN0M3tmaWxsOiNmZmY7fSYjeGE7CTwvc3R5bGU+JiN4YTsJPHBhdGggY2xhc3M9InN0MCIgZD0iTTkgNmgydjEwSDl6Ii8+JiN4YTsJPHBhdGggY2xhc3M9InN0MSIgZD0iTTIwIDE3SDB2MmgyMHoiLz4mI3hhOwk8cGF0aCBjbGFzcz0ic3QyIiBkPSJNMTIgMTZIOHY0aDR6TTAgMGgyMHY2SDB6Ii8+JiN4YTsJPHBhdGggY2xhc3M9InN0MSIgZD0iTTEwIDBoMTB2NkgxMHoiLz4mI3hhOwk8cGF0aCBjbGFzcz0ic3QzIiBkPSJNMiAyaDJ2MkgyeiIvPiYjeGE7CTxwYXRoIGNsYXNzPSJzdDIiIGQ9Ik0wIDhoMjB2NkgweiIvPiYjeGE7CTxwYXRoIGNsYXNzPSJzdDEiIGQ9Ik0xMCA4aDEwdjZIMTB6Ii8+JiN4YTsJPHBhdGggY2xhc3M9InN0MyIgZD0iTTIgMTBoMnYySDJ6Ii8+JiN4YTs8L3N2Zz4=;" vertex="1" parent="mQq_rkckX5Se1eWS7O4C-50">
          <mxGeometry x="15" y="16.25" width="30" height="32.5" as="geometry" />
        </mxCell>
        <mxCell id="mQq_rkckX5Se1eWS7O4C-54" style="edgeStyle=none;rounded=0;orthogonalLoop=1;jettySize=auto;html=1;entryX=0;entryY=0.5;entryDx=0;entryDy=0;startArrow=classic;startFill=1;strokeColor=#4D4D4D;endSize=3;startSize=3;" edge="1" parent="1" source="mQq_rkckX5Se1eWS7O4C-40" target="mQq_rkckX5Se1eWS7O4C-19">
          <mxGeometry relative="1" as="geometry" />
        </mxCell>
        <mxCell id="mQq_rkckX5Se1eWS7O4C-40" value="" style="shape=image;verticalLabelPosition=bottom;labelBackgroundColor=default;verticalAlign=top;aspect=fixed;imageAspect=0;image=https://quiksite.com/wp-content/uploads/2016/09/Nginx-Logo-02.png;strokeColor=#808080;" vertex="1" parent="1">
          <mxGeometry x="405" y="287" width="40" height="40" as="geometry" />
        </mxCell>
        <mxCell id="mQq_rkckX5Se1eWS7O4C-56" style="edgeStyle=none;rounded=0;orthogonalLoop=1;jettySize=auto;html=1;entryX=0;entryY=0.5;entryDx=0;entryDy=0;startArrow=classic;startFill=1;" edge="1" parent="1" source="mQq_rkckX5Se1eWS7O4C-8" target="mQq_rkckX5Se1eWS7O4C-24">
          <mxGeometry relative="1" as="geometry" />
        </mxCell>
        <mxCell id="mQq_rkckX5Se1eWS7O4C-57" style="edgeStyle=none;rounded=0;orthogonalLoop=1;jettySize=auto;html=1;entryX=0;entryY=0.5;entryDx=0;entryDy=0;startArrow=classic;startFill=1;" edge="1" parent="1" source="mQq_rkckX5Se1eWS7O4C-45" target="mQq_rkckX5Se1eWS7O4C-8">
          <mxGeometry relative="1" as="geometry" />
        </mxCell>
        <mxCell id="mQq_rkckX5Se1eWS7O4C-58" style="edgeStyle=none;rounded=0;orthogonalLoop=1;jettySize=auto;html=1;entryX=-0.006;entryY=0.468;entryDx=0;entryDy=0;entryPerimeter=0;startArrow=classic;startFill=1;" edge="1" parent="1" source="mQq_rkckX5Se1eWS7O4C-20" target="mQq_rkckX5Se1eWS7O4C-45">
          <mxGeometry relative="1" as="geometry" />
        </mxCell>
      </root>
    </mxGraphModel>
  </diagram>
</mxfile>
